<?xml version="1.0" encoding="UTF-8"?>
<svg id="Capa_1" data-name="Capa 1" xmlns="http://www.w3.org/2000/svg" viewBox="0 0 391.75 391.75">
  <defs>
    <style>
      .cls-1 {
        fill: #c0b2cc;
      }

      .cls-2 {
        fill: #5a2677;
      }

      .cls-3 {
        fill: #c1b1d0;
      }

      .cls-4 {
        fill: #fff;
      }
    </style>
  </defs>
  <circle class="cls-2" cx="195.88" cy="195.88" r="195.88"/>
  <g>
    <g>
      <path class="cls-4" d="M58.13,244.72c-1.31-.8-2.33-1.89-3.09-3.28-.75-1.39-1.13-2.92-1.13-4.59s.38-3.18,1.13-4.56c.75-1.38,1.78-2.47,3.09-3.28,1.31-.81,2.75-1.21,4.32-1.21,1.12,0,2.09.15,2.91.45s1.65.8,2.49,1.49c.18.14.29.28.35.42.06.14.09.31.09.51,0,.3-.11.55-.32.75-.21.2-.46.29-.74.29s-.54-.1-.77-.29c-.6-.53-1.19-.91-1.77-1.14-.58-.23-1.32-.35-2.23-.35-1.15,0-2.21.31-3.17.93-.97.62-1.73,1.46-2.3,2.52-.57,1.06-.85,2.22-.85,3.47s.28,2.43.85,3.49c.57,1.06,1.33,1.89,2.3,2.51.97.62,2.02.93,3.17.93,1.42,0,2.77-.5,4.07-1.49.25-.18.49-.27.73-.27.28,0,.51.1.7.31.18.2.28.47.28.8s-.12.6-.35.84c-1.59,1.31-3.4,1.97-5.42,1.97-1.58,0-3.02-.4-4.32-1.2Z"/>
      <path class="cls-4" d="M81.38,240.02c-.19.19-.44.28-.73.28h-8.41c.16,1.06.63,1.91,1.4,2.56.77.65,1.72.97,2.84.97.44,0,.9-.08,1.38-.25s.87-.37,1.18-.61c.21-.17.45-.25.73-.25s.5.08.66.23c.27.23.4.48.4.77,0,.27-.12.5-.35.68-.5.41-1.12.74-1.87,1-.75.26-1.46.38-2.13.38-1.21,0-2.29-.27-3.25-.8-.96-.54-1.71-1.28-2.25-2.23-.54-.95-.81-2.03-.81-3.24s.25-2.29.76-3.25c.51-.96,1.22-1.71,2.12-2.24.91-.54,1.94-.8,3.09-.8s2.12.26,2.94.77c.83.51,1.46,1.23,1.9,2.15.44.92.66,1.98.66,3.17,0,.29-.1.52-.29.71ZM73.53,236.07c-.67.6-1.1,1.41-1.27,2.42h7.37c-.13-1.01-.5-1.82-1.11-2.42-.61-.6-1.39-.91-2.37-.91-1.08,0-1.95.3-2.62.91Z"/>
      <path class="cls-4" d="M93.3,233.88c.81.45,1.45,1.11,1.9,1.98.46.87.69,1.91.69,3.14v5.57c0,.33-.11.61-.32.83-.21.22-.48.33-.81.33s-.59-.11-.81-.33c-.21-.22-.32-.49-.32-.83v-5.57c0-1.22-.32-2.15-.96-2.77-.64-.63-1.49-.94-2.56-.94-.62,0-1.18.13-1.69.39-.51.26-.91.6-1.19,1.04-.29.44-.43.93-.43,1.47v6.38c0,.33-.1.61-.31.83-.21.22-.48.33-.82.33s-.59-.11-.81-.33c-.21-.22-.32-.49-.32-.83v-10.09c0-.35.11-.63.32-.84s.48-.32.81-.32.61.11.82.32c.21.21.31.49.31.84v.25c.47-.48,1.03-.86,1.68-1.12.65-.26,1.34-.4,2.08-.4,1.02,0,1.93.23,2.74.68Z"/>
      <path class="cls-4" d="M105.46,243.74c.18.21.28.48.28.82s-.12.6-.36.81c-.24.21-.56.32-.94.32h-.4c-.72,0-1.38-.19-1.98-.58-.6-.38-1.07-.91-1.4-1.57-.34-.66-.51-1.41-.51-2.24v-5.59h-1.02c-.31,0-.56-.09-.75-.27-.19-.18-.29-.41-.29-.68,0-.3.1-.54.29-.72.19-.18.44-.27.75-.27h1.02v-3.26c0-.33.1-.6.31-.81s.47-.32.8-.32.59.11.8.32.31.48.31.81v3.26h1.88c.31,0,.56.09.75.27s.29.42.29.72c0,.27-.1.5-.29.68s-.44.27-.75.27h-1.88v5.59c0,.6.16,1.11.49,1.52s.72.61,1.19.61h.75c.27,0,.49.11.67.32Z"/>
      <path class="cls-4" d="M116.26,233.54c.44.24.66.54.66.91,0,.11,0,.18-.02.23-.13.48-.43.72-.88.72-.07,0-.18-.02-.33-.05-.59-.11-1.07-.16-1.44-.16-1.06,0-1.92.25-2.57.75-.65.5-.97,1.17-.97,2.01v6.61c0,.36-.09.64-.28.84-.18.2-.46.29-.83.29s-.63-.09-.82-.28c-.19-.19-.29-.47-.29-.85v-10.12c0-.36.1-.64.29-.84.19-.2.46-.29.82-.29.74,0,1.11.38,1.11,1.13v.43c.44-.53.99-.94,1.64-1.24.65-.3,1.34-.45,2.08-.45.78,0,1.39.12,1.84.36Z"/>
      <path class="cls-4" d="M120.69,244.98c-.93-.54-1.65-1.28-2.17-2.23-.52-.95-.77-2.03-.77-3.24s.26-2.31.77-3.26c.52-.95,1.24-1.69,2.17-2.23.93-.54,1.98-.8,3.16-.8s2.21.27,3.13.8c.92.54,1.64,1.28,2.17,2.23.52.95.79,2.04.79,3.26s-.26,2.29-.77,3.24c-.52.95-1.24,1.69-2.16,2.23-.92.54-1.97.8-3.15.8s-2.23-.27-3.16-.8ZM125.88,243.2c.6-.36,1.06-.86,1.39-1.5.33-.64.5-1.37.5-2.18s-.17-1.55-.5-2.2c-.33-.65-.8-1.15-1.39-1.52-.6-.36-1.27-.54-2.02-.54s-1.43.18-2.02.54c-.6.36-1.07.87-1.41,1.52-.34.65-.51,1.38-.51,2.2s.17,1.54.51,2.18c.34.64.81,1.14,1.41,1.5.6.36,1.27.54,2.02.54s1.43-.18,2.02-.54Z"/>
      <path class="cls-4" d="M140.32,245.36c-.21-.22-.32-.5-.32-.85v-15.32c0-.35.11-.63.32-.85.21-.22.48-.33.81-.33.16,0,.32.04.49.12s.29.18.4.31l9.65,13.13v-12.38c0-.35.11-.63.33-.85.22-.22.49-.33.82-.33s.59.11.81.33c.21.22.32.5.32.85v15.32c0,.35-.11.63-.32.85-.21.22-.48.33-.81.33-.16,0-.33-.03-.5-.1-.17-.07-.3-.17-.39-.31l-9.65-13.13v12.36c0,.33-.11.61-.32.84-.21.23-.49.34-.83.34s-.59-.11-.81-.33Z"/>
      <path class="cls-4" d="M168.72,240.02c-.19.19-.44.28-.73.28h-8.41c.16,1.06.63,1.91,1.4,2.56.77.65,1.72.97,2.84.97.44,0,.9-.08,1.38-.25.48-.17.87-.37,1.18-.61.21-.17.45-.25.73-.25s.5.08.66.23c.27.23.4.48.4.77,0,.27-.12.5-.35.68-.5.41-1.12.74-1.87,1-.74.26-1.46.38-2.13.38-1.21,0-2.29-.27-3.25-.8-.96-.54-1.71-1.28-2.25-2.23-.54-.95-.81-2.03-.81-3.24s.25-2.29.76-3.25c.51-.96,1.22-1.71,2.12-2.24.91-.54,1.94-.8,3.09-.8s2.12.26,2.94.77c.83.51,1.46,1.23,1.9,2.15.44.92.66,1.98.66,3.17,0,.29-.1.52-.29.71ZM160.88,236.07c-.67.6-1.09,1.41-1.27,2.42h7.37c-.13-1.01-.5-1.82-1.11-2.42-.6-.6-1.39-.91-2.37-.91-1.08,0-1.95.3-2.62.91Z"/>
      <path class="cls-4" d="M182.68,233.61c.21.21.31.49.31.84v10.09c0,.33-.1.61-.31.83-.21.22-.48.33-.82.33s-.59-.11-.81-.33c-.21-.22-.32-.49-.32-.83v-.25c-.47.48-1.03.86-1.68,1.12-.65.26-1.34.4-2.08.4-1.02,0-1.93-.23-2.74-.68-.81-.45-1.45-1.11-1.9-1.98-.46-.87-.69-1.91-.69-3.13v-5.57c0-.33.11-.61.32-.83.21-.22.48-.33.81-.33s.59.11.81.33c.21.22.32.49.32.83v5.57c0,1.22.32,2.15.96,2.77.64.63,1.49.94,2.56.94.62,0,1.18-.13,1.69-.39.51-.26.91-.6,1.19-1.04.29-.44.43-.93.43-1.47v-6.38c0-.35.11-.63.32-.84.21-.21.48-.32.81-.32s.61.11.82.32Z"/>
      <path class="cls-4" d="M194.74,233.54c.44.24.66.54.66.91,0,.11,0,.18-.02.23-.13.48-.43.72-.88.72-.07,0-.18-.02-.33-.05-.59-.11-1.07-.16-1.44-.16-1.06,0-1.92.25-2.57.75-.65.5-.97,1.17-.97,2.01v6.61c0,.36-.09.64-.28.84-.18.2-.46.29-.83.29s-.63-.09-.82-.28c-.19-.19-.29-.47-.29-.85v-10.12c0-.36.1-.64.29-.84.19-.2.46-.29.82-.29.74,0,1.11.38,1.11,1.13v.43c.44-.53.99-.94,1.64-1.24s1.34-.45,2.08-.45c.78,0,1.39.12,1.84.36Z"/>
      <path class="cls-4" d="M199.16,244.98c-.93-.54-1.65-1.28-2.17-2.23-.52-.95-.77-2.03-.77-3.24s.26-2.31.77-3.26c.52-.95,1.24-1.69,2.17-2.23.93-.54,1.98-.8,3.16-.8s2.21.27,3.13.8c.92.54,1.64,1.28,2.17,2.23.52.95.79,2.04.79,3.26s-.26,2.29-.77,3.24c-.52.95-1.24,1.69-2.16,2.23-.92.54-1.97.8-3.15.8s-2.23-.27-3.16-.8ZM204.35,243.2c.6-.36,1.06-.86,1.39-1.5.33-.64.5-1.37.5-2.18s-.17-1.55-.5-2.2c-.33-.65-.8-1.15-1.39-1.52s-1.27-.54-2.02-.54-1.43.18-2.02.54c-.6.36-1.07.87-1.41,1.52-.34.65-.51,1.38-.51,2.2s.17,1.54.51,2.18.81,1.14,1.41,1.5c.6.36,1.27.54,2.02.54s1.43-.18,2.02-.54Z"/>
      <path class="cls-4" d="M223.03,228.33c.21.21.31.49.31.84v10.32c0,1.18-.27,2.24-.81,3.2-.54.96-1.27,1.71-2.19,2.26-.92.55-1.95.83-3.09.83s-2.17-.27-3.11-.83c-.94-.55-1.67-1.3-2.2-2.26-.53-.96-.8-2.03-.8-3.2s.25-2.24.74-3.2c.49-.96,1.17-1.71,2.04-2.25s1.83-.81,2.89-.81c.86,0,1.65.18,2.39.54.74.36,1.36.87,1.88,1.52v-6.11c0-.35.11-.63.32-.84.21-.21.48-.32.81-.32s.61.11.82.32ZM219.26,243.19c.6-.37,1.07-.88,1.4-1.53.34-.65.51-1.37.51-2.17s-.17-1.52-.51-2.16c-.34-.64-.81-1.15-1.4-1.52-.6-.37-1.26-.55-2-.55s-1.4.18-2,.55c-.6.37-1.07.88-1.42,1.52s-.52,1.36-.52,2.16.17,1.52.52,2.17c.35.65.82,1.16,1.42,1.53.6.37,1.26.55,2,.55s1.4-.18,2-.55Z"/>
      <path class="cls-4" d="M227.64,230.86c-.29-.29-.43-.65-.43-1.05s.14-.76.43-1.05.63-.44,1.03-.44.74.15,1.03.44.43.64.43,1.05-.14.76-.43,1.05-.63.44-1.03.44-.74-.15-1.03-.44ZM227.87,245.36c-.21-.22-.32-.49-.32-.83v-10.07c0-.35.11-.63.32-.84s.48-.32.81-.32.61.11.82.32.31.49.31.84v10.07c0,.33-.1.61-.31.83-.21.22-.48.33-.82.33s-.59-.11-.81-.33Z"/>
      <path class="cls-4" d="M242.58,234.05c.92.55,1.65,1.31,2.19,2.26.54.96.81,2.03.81,3.2v5.05c0,.33-.11.61-.32.83-.21.22-.48.33-.81.33s-.59-.11-.81-.33c-.21-.22-.32-.49-.32-.83v-.84c-.52.65-1.14,1.15-1.88,1.52-.74.36-1.53.54-2.39.54-1.06,0-2.02-.27-2.89-.81-.86-.54-1.54-1.29-2.04-2.25-.49-.96-.74-2.03-.74-3.2s.27-2.24.8-3.2c.53-.96,1.26-1.71,2.2-2.26.94-.55,1.97-.83,3.11-.83s2.16.28,3.09.83ZM241.49,243.19c.6-.37,1.07-.87,1.4-1.52.34-.64.51-1.36.51-2.16s-.17-1.52-.51-2.17c-.34-.65-.81-1.16-1.4-1.53-.6-.37-1.26-.55-2-.55s-1.4.18-2,.55c-.6.37-1.07.88-1.42,1.53-.35.65-.52,1.37-.52,2.17s.17,1.52.52,2.16c.35.64.82,1.15,1.42,1.52.6.37,1.26.55,2,.55s1.4-.18,2-.55Z"/>
      <path class="cls-4" d="M257.56,234.02c.92.54,1.64,1.28,2.17,2.23.52.95.79,2.04.79,3.26v4.89c0,1.19-.26,2.28-.77,3.26-.52.98-1.24,1.75-2.18,2.32s-2,.85-3.17.85c-1.06,0-2.05-.21-2.97-.64-.91-.43-1.68-1.05-2.3-1.84-.16-.21-.24-.42-.24-.63,0-.32.15-.59.46-.81.21-.14.41-.2.62-.2.37,0,.67.16.91.48.4.53.9.93,1.5,1.21.6.28,1.29.42,2.06.42.72,0,1.38-.18,1.97-.53.59-.35,1.06-.88,1.42-1.56.35-.69.53-1.51.53-2.46v-1.11c-.46.83-1.06,1.48-1.81,1.95-.75.47-1.6.7-2.54.7-1.09,0-2.07-.27-2.93-.8-.86-.54-1.53-1.28-2.01-2.23-.48-.95-.72-2.03-.72-3.24s.26-2.31.77-3.26c.52-.95,1.24-1.69,2.17-2.23.93-.54,1.98-.8,3.16-.8s2.21.27,3.13.8ZM256.45,243.2c.6-.36,1.06-.86,1.39-1.5.33-.64.5-1.37.5-2.18s-.17-1.55-.5-2.2c-.33-.65-.8-1.15-1.39-1.52-.6-.36-1.27-.54-2.02-.54s-1.43.18-2.02.54c-.6.36-1.07.87-1.41,1.52-.34.65-.51,1.38-.51,2.2s.17,1.54.51,2.18c.34.64.81,1.14,1.41,1.5.6.36,1.27.54,2.02.54s1.43-.18,2.02-.54Z"/>
      <path class="cls-4" d="M272.63,233.88c.81.45,1.45,1.11,1.9,1.98.46.87.69,1.91.69,3.14v5.57c0,.33-.11.61-.32.83-.21.22-.48.33-.81.33s-.59-.11-.81-.33c-.21-.22-.32-.49-.32-.83v-5.57c0-1.22-.32-2.15-.96-2.77-.64-.63-1.49-.94-2.56-.94-.62,0-1.18.13-1.69.39-.51.26-.91.6-1.19,1.04-.29.44-.43.93-.43,1.47v6.38c0,.33-.1.61-.31.83-.21.22-.48.33-.82.33s-.59-.11-.81-.33c-.21-.22-.32-.49-.32-.83v-10.09c0-.35.11-.63.32-.84.21-.21.48-.32.81-.32s.61.11.82.32.31.49.31.84v.25c.47-.48,1.03-.86,1.68-1.12.65-.26,1.34-.4,2.08-.4,1.02,0,1.93.23,2.74.68Z"/>
      <path class="cls-4" d="M281.28,244.98c-.93-.54-1.65-1.28-2.17-2.23-.52-.95-.77-2.03-.77-3.24s.26-2.31.77-3.26c.52-.95,1.24-1.69,2.17-2.23.93-.54,1.98-.8,3.16-.8s2.21.27,3.13.8c.92.54,1.64,1.28,2.17,2.23.52.95.79,2.04.79,3.26s-.26,2.29-.77,3.24c-.52.95-1.24,1.69-2.16,2.23-.92.54-1.97.8-3.15.8s-2.23-.27-3.16-.8ZM286.47,243.2c.6-.36,1.06-.86,1.39-1.5.33-.64.5-1.37.5-2.18s-.17-1.55-.5-2.2c-.33-.65-.8-1.15-1.39-1.52-.6-.36-1.27-.54-2.02-.54s-1.43.18-2.02.54c-.6.36-1.07.87-1.4,1.52-.34.65-.51,1.38-.51,2.2s.17,1.54.51,2.18c.34.64.81,1.14,1.4,1.5.6.36,1.27.54,2.02.54s1.43-.18,2.02-.54ZM283.72,231.04c-.21-.22-.31-.49-.31-.83s.09-.57.27-.77l2.17-2.22c.22-.23.49-.34.8-.34s.59.11.81.34c.21.23.32.51.32.84s-.1.6-.31.79l-2.15,2.2c-.21.21-.46.32-.77.32-.34,0-.61-.11-.82-.33Z"/>
      <path class="cls-4" d="M295.46,245.31c-.89-.32-1.58-.73-2.08-1.24-.19-.2-.29-.43-.29-.7,0-.36.15-.66.44-.88.28-.21.54-.32.77-.32.29,0,.58.14.84.41.28.32.7.59,1.26.83.56.23,1.16.35,1.79.35.84,0,1.49-.14,1.96-.43.46-.29.7-.67.7-1.15s-.23-.86-.69-1.17-1.23-.57-2.32-.78c-2.83-.56-4.25-1.75-4.25-3.58,0-.74.21-1.37.64-1.88.43-.51.99-.9,1.68-1.15.69-.26,1.43-.38,2.21-.38.96,0,1.82.16,2.58.48.76.32,1.36.75,1.8,1.31.19.24.29.48.29.72,0,.26-.13.49-.38.7-.16.12-.37.18-.62.18-.38,0-.73-.14-1.04-.43-.37-.35-.76-.59-1.17-.74-.41-.14-.91-.22-1.5-.22-.68,0-1.24.12-1.67.35-.44.23-.65.56-.65.98,0,.3.07.55.22.76.15.2.43.39.84.57.41.17,1.01.34,1.79.51,1.61.33,2.75.79,3.42,1.38.67.59,1.01,1.35,1.01,2.29,0,.69-.18,1.32-.55,1.89-.37.57-.91,1.01-1.63,1.34-.72.32-1.57.49-2.58.49s-1.95-.16-2.83-.48Z"/>
      <path class="cls-4" d="M311.74,243.74c.18.21.28.48.28.82s-.12.6-.36.81c-.24.21-.56.32-.94.32h-.4c-.72,0-1.38-.19-1.98-.58-.6-.38-1.07-.91-1.4-1.57s-.51-1.41-.51-2.24v-5.59h-1.02c-.31,0-.56-.09-.75-.27s-.29-.41-.29-.68c0-.3.1-.54.29-.72s.44-.27.75-.27h1.02v-3.26c0-.33.1-.6.31-.81.21-.21.47-.32.8-.32s.59.11.8.32.31.48.31.81v3.26h1.88c.31,0,.56.09.75.27.19.18.29.42.29.72,0,.27-.1.5-.29.68-.19.18-.44.27-.75.27h-1.88v5.59c0,.6.16,1.11.49,1.52.32.41.72.61,1.19.61h.75c.27,0,.49.11.67.32Z"/>
      <path class="cls-4" d="M315.1,230.86c-.29-.29-.43-.65-.43-1.05s.14-.76.43-1.05.63-.44,1.03-.44.74.15,1.03.44c.29.29.43.64.43,1.05s-.14.76-.43,1.05c-.29.29-.63.44-1.03.44s-.74-.15-1.03-.44ZM315.32,245.36c-.21-.22-.32-.49-.32-.83v-10.07c0-.35.11-.63.32-.84s.48-.32.81-.32.61.11.82.32.31.49.31.84v10.07c0,.33-.1.61-.31.83-.21.22-.48.33-.82.33s-.59-.11-.81-.33Z"/>
      <path class="cls-4" d="M323.8,244.97c-.93-.54-1.66-1.29-2.18-2.25-.52-.96-.79-2.03-.79-3.2s.25-2.29.76-3.25c.51-.96,1.22-1.71,2.13-2.24.91-.54,1.95-.8,3.1-.8,1.74,0,3.19.68,4.34,2.04.15.17.22.36.22.59,0,.33-.16.61-.49.84-.15.11-.32.16-.51.16-.34,0-.63-.14-.86-.41-.37-.41-.77-.71-1.21-.89-.44-.19-.93-.28-1.49-.28-1.14,0-2.06.39-2.77,1.17s-1.06,1.81-1.06,3.09c0,.81.17,1.54.5,2.18.33.64.8,1.14,1.39,1.5.6.36,1.28.54,2.05.54,1,0,1.81-.26,2.43-.79.28-.21.55-.32.82-.32.21,0,.4.07.58.2.28.24.42.51.42.81,0,.23-.09.43-.27.61-1.06,1.01-2.39,1.52-3.98,1.52-1.17,0-2.21-.27-3.14-.81Z"/>
      <path class="cls-4" d="M337.08,244.98c-.93-.54-1.65-1.28-2.17-2.23-.52-.95-.77-2.03-.77-3.24s.26-2.31.77-3.26c.52-.95,1.24-1.69,2.17-2.23.93-.54,1.98-.8,3.16-.8s2.21.27,3.13.8c.92.54,1.64,1.28,2.17,2.23.52.95.79,2.04.79,3.26s-.26,2.29-.77,3.24-1.24,1.69-2.16,2.23c-.92.54-1.97.8-3.15.8s-2.23-.27-3.16-.8ZM342.27,243.2c.6-.36,1.06-.86,1.39-1.5.33-.64.5-1.37.5-2.18s-.17-1.55-.5-2.2c-.33-.65-.8-1.15-1.39-1.52-.6-.36-1.27-.54-2.02-.54s-1.43.18-2.02.54c-.6.36-1.07.87-1.41,1.52-.34.65-.51,1.38-.51,2.2s.17,1.54.51,2.18c.34.64.81,1.14,1.41,1.5.6.36,1.27.54,2.02.54s1.43-.18,2.02-.54Z"/>
    </g>
    <g>
      <path class="cls-4" d="M85.63,212.53c0,1.33-.53,2.44-1.59,3.35-.88.72-1.83,1.09-2.83,1.09-1.3,0-2.36-.54-3.18-1.63l-16.8-21.26-4.42,3.98v13.84c0,1.33-.4,2.4-1.19,3.21-.8.81-1.84,1.22-3.14,1.22s-2.34-.41-3.14-1.22c-.8-.81-1.19-1.88-1.19-3.21v-61.79c0-1.33.4-2.4,1.19-3.21.8-.81,1.84-1.22,3.14-1.22s2.34.41,3.14,1.22c.8.81,1.19,1.89,1.19,3.21v36.82l21.49-19.63c.77-.78,1.68-1.18,2.74-1.18,1.24,0,2.24.48,3.01,1.45.77.78,1.15,1.72,1.15,2.8,0,1.27-.47,2.29-1.41,3.08l-16.27,14.84,17.16,21.53c.65.72.97,1.63.97,2.71Z"/>
      <path class="cls-4" d="M159.59,215.46c-3.17-1.27-5.65-2.92-7.45-4.98-.69-.78-1.03-1.72-1.03-2.8,0-1.45.53-2.62,1.58-3.53,1-.84,1.93-1.27,2.77-1.27,1.06,0,2.06.54,3.01,1.63,1,1.27,2.51,2.37,4.52,3.3,2.01.94,4.15,1.4,6.42,1.4,3.01,0,5.35-.57,7.01-1.72,1.66-1.15,2.5-2.68,2.5-4.61s-.82-3.42-2.46-4.66c-1.64-1.24-4.41-2.28-8.32-3.12-10.14-2.23-15.21-7-15.21-14.29,0-2.95.77-5.46,2.3-7.51,1.53-2.05,3.54-3.59,6.02-4.61,2.48-1.02,5.12-1.54,7.92-1.54,3.43,0,6.51.63,9.23,1.9,2.72,1.27,4.87,3.02,6.46,5.25.69.97,1.03,1.93,1.03,2.89,0,1.03-.45,1.96-1.35,2.8-.58.48-1.32.72-2.22.72-1.37,0-2.61-.57-3.72-1.72-1.32-1.39-2.72-2.37-4.2-2.94-1.48-.57-3.28-.86-5.39-.86-2.43,0-4.42.47-5.98,1.4-1.56.94-2.34,2.25-2.34,3.94,0,1.21.26,2.22.79,3.03.53.81,1.53,1.57,3.01,2.26,1.48.69,3.62,1.37,6.42,2.04,5.76,1.33,9.84,3.17,12.24,5.52,2.4,2.35,3.6,5.4,3.6,9.14,0,2.77-.66,5.29-1.98,7.55-1.32,2.26-3.26,4.04-5.82,5.34-2.56,1.3-5.64,1.95-9.23,1.95s-6.97-.63-10.14-1.9Z"/>
      <path class="cls-1" d="M223.68,205.08c-.37-4.39-3.46-7.98-7.51-9.13-1.06-.3-2.24-.58-3.54-.85-10.79-2.23-16.19-7-16.19-14.29,0-2.95.81-5.46,2.45-7.51,1.63-2.05,3.77-3.59,6.41-4.61,2.64-1.02,5.45-1.54,8.43-1.54,3.65,0,6.93.63,9.82,1.9,2.89,1.27,5.19,3.02,6.87,5.25-23.41-9.68-25.68.46-25.36,6.07.13,2.38,1.54,4.51,3.64,5.44.02,0,.03.01.05.02,1.57.69,3.85,1.37,6.83,2.04,6.13,1.33,10.47,3.17,13.03,5.52,2.56,2.35,3.84,5.4,3.84,9.14,0,2.77-.7,5.29-2.11,7.55-1.41,2.26-3.47,4.04-6.2,5.34-2.73,1.3-6,1.95-9.82,1.95s-7.42-.63-10.79-1.9c-3.37-1.27-6.02-2.92-7.93-4.98,24.62,7.05,28.57.5,28.08-5.41Z"/>
      <path class="cls-4" d="M311.13,194.34c-.77.75-1.74,1.13-2.92,1.13h-37.62c.65,4.22,2.52,7.63,5.62,10.22,3.1,2.59,6.88,3.89,11.36,3.89,1.77,0,3.61-.33,5.53-1,1.92-.66,3.49-1.48,4.73-2.44.82-.66,1.8-1,2.92-1s2,.3,2.65.9c1.06.9,1.59,1.93,1.59,3.08,0,1.09-.47,1.99-1.41,2.71-2.01,1.63-4.5,2.96-7.47,3.98-2.98,1.03-5.82,1.54-8.53,1.54-4.83,0-9.17-1.07-13-3.21-3.83-2.14-6.82-5.11-8.98-8.91-2.15-3.8-3.23-8.11-3.23-12.94s1.02-9.15,3.05-12.98c2.03-3.83,4.86-6.81,8.49-8.96,3.63-2.14,11.75-3.21,16.35-3.21s8.46,1.03,11.76,3.08c3.3,2.05,5.84,4.92,7.61,8.59,1.77,3.68,2.65,7.9,2.65,12.67,0,1.15-.38,2.1-1.15,2.85ZM275.77,178.55c-2.68,2.41-4.38,5.64-5.09,9.68h33.46c-.53-4.04-2-7.27-4.42-9.68-2.42-2.41-5.57-3.62-9.46-3.62-4.3,0-11.81,1.21-14.5,3.62Z"/>
      <path class="cls-4" d="M141.11,194.34c-.77.75-1.74,1.13-2.92,1.13h-37.62c.65,4.22,2.52,7.63,5.62,10.22,3.1,2.59,6.88,3.89,11.36,3.89,1.77,0,3.61-.33,5.53-1,1.92-.66,3.49-1.48,4.73-2.44.82-.66,1.8-1,2.92-1s2,.3,2.65.9c1.06.9,1.59,1.93,1.59,3.08,0,1.09-.47,1.99-1.41,2.71-2.01,1.63-4.5,2.96-7.47,3.98-2.98,1.03-5.82,1.54-8.53,1.54-4.83,0-9.17-1.07-13-3.21-3.83-2.14-6.82-5.11-8.98-8.91-2.15-3.8-3.23-8.11-3.23-12.94s1.02-9.15,3.05-12.98c2.03-3.83,4.86-6.81,8.49-8.96,3.63-2.14,11.75-3.21,16.35-3.21s8.46,1.03,11.76,3.08c3.3,2.05,5.84,4.92,7.61,8.59,1.77,3.68,2.65,7.9,2.65,12.67,0,1.15-.38,2.1-1.15,2.85ZM105.74,178.55c-2.68,2.41-4.38,5.64-5.09,9.68h33.46c-.53-4.04-2-7.27-4.42-9.68-2.42-2.41-5.57-3.62-9.46-3.62-4.3,0-11.81,1.21-14.5,3.62Z"/>
      <path class="cls-4" d="M349.46,169.09c1.77.97,2.65,2.17,2.65,3.62,0,.42-.03.72-.09.9-.53,1.93-1.71,2.89-3.54,2.89-.3,0-.74-.06-1.33-.18-2.36-.42-4.28-.63-5.75-.63-4.24,0-4.99,1-7.58,2.99-2.59,1.99-3.22,4.67-3.22,8.05v26.42c0,1.45-.37,2.56-1.11,3.35-.74.78-1.84,1.18-3.32,1.18s-2.51-.38-3.27-1.13c-.77-.75-1.15-1.88-1.15-3.39v-40.44c0-1.45.38-2.56,1.15-3.35.77-.78,1.86-1.18,3.27-1.18,2.95,0,4.42,1.51,4.42,4.52v1.72c1.77-2.11,1.94-3.77,4.54-4.98,2.59-1.21,4.03-1.81,6.97-1.81,3.12,0,5.57.48,7.34,1.45Z"/>
      <g>
        <circle class="cls-3" cx="206.55" cy="155.73" r="4.35"/>
        <path class="cls-3" d="M197.15,159.49c-1.67-5.08-6.74-8.32-12.29-6.95-1.73.43-3.26,1.24-4.51,2.32-.34.29-.82-.15-.6-.56,1.37-2.52,3.64-4.5,6.52-5.38,5.93-1.81,12.17,1.74,13.95,7.92,1.78,6.18-1.58,12.66-7.51,14.47-1.23.37-2.47.51-3.68.45-.23-.01-.28-.37-.06-.43,2.97-.93,10.68-4.14,8.16-11.83Z"/>
        <path class="cls-3" d="M218.46,151.97c-.47,5.32,2.92,10.3,8.55,11.23,1.76.29,3.48.15,5.05-.35.43-.14.69.46.33.75-2.25,1.77-5.12,2.7-8.12,2.37-6.16-.68-10.5-6.4-9.7-12.79.8-6.38,6.45-11.01,12.61-10.34.97.11,1.88.34,2.74.68.39.15.26.74-.15.72-3.55-.21-10.66.32-11.31,7.72Z"/>
        <path class="cls-3" d="M201.13,144.06c5.12.6,10.01-2.53,11.06-7.94.33-1.69.23-3.35-.2-4.88-.12-.42.47-.65.73-.29,1.65,2.22,2.46,5.01,2.06,7.89-.82,5.92-6.45,9.95-12.58,9-6.13-.95-10.44-6.51-9.62-12.43.13-.93.38-1.81.73-2.63.16-.37.72-.24.69.17-.3,3.42.02,10.28,7.14,11.11Z"/>
      </g>
      <rect class="cls-4" x="242.99" y="145.32" width="8.03" height="72.29" rx="1.94" ry="1.94"/>
    </g>
  </g>
</svg>